# xmcd
# Copyright (C) 1995-1998 Ti Kan
#
# Track frame offsets:
#       150
#       19955
#       35344
#       53462
#       71118
#       87320
#       102631
#       120786
#       138504
#       149520
#       165009
#       183885
#       201952
#       215149
#       231925
#       251226
#       268453
#       281530
#       299037
#       312061
#       325567
#       342039
#
# Disc length: 4775 seconds
#
# Revision: 0
# Processed by: cddbd v1.5.2PL0 Copyright (c) Steve Scherf et al.
# Submitted via: CD-Transfer v1.0
#
DISCID=5112a516
DTITLE=Various Artist - 
DYEAR=1900
DGENRE=
TTITLE0=Blondy, Alpha Wish You Were Here (C)
TTITLE1=Winehouse, Amy Rehab (Reggae Remix)
TTITLE2=Robinson, Ed Knocking On Heaven's Door (C)
TTITLE3=Lovette, Eddie Sweet Sensation (C)
TTITLE4=Inner Circle Bad Boys (C)
TTITLE5=Jamaica Soundsystem Everybreath You Take (C)
TTITLE6=Jimi D Just The Way You Are (C)
TTITLE7=Luciano We Are The World (C)
TTITLE8=Saunders, Mahalia Piece Of My Heart (C)
TTITLE9=Maxi Priest Wild World (C)
TTITLE10=One Third I Wanna Know What Love Is (C)
TTITLE11=Reggaestra Don't Speak (C)
TTITLE12=Reggaestra Thank You (C)
TTITLE13=Reggaestra I Don't Wanna Miss A Thing (C)
TTITLE14=Reggaestra Killing Me Softly (C)
TTITLE15=Reggaestra Rolling In Deep (C)
TTITLE16=Shinehead Billie Jean (C)
TTITLE17=Moses, Shyan Hey Soul Sister (C)
TTITLE18=Flavour, The Sex On Fire
TTITLE19=Xxxxxxx Black Or White (C)
TTITLE20=Xxxxxxx Pumped Up The Kicks (C)
TTITLE21=Xxxxxxx Ain't No Rest For The Wicked (C)
EXTD=
EXTT0=
EXTT1=
EXTT2=
EXTT3=
EXTT4=
EXTT5=
EXTT6=
EXTT7=
EXTT8=
EXTT9=
EXTT10=
EXTT11=
EXTT12=
EXTT13=
EXTT14=
EXTT15=
EXTT16=
EXTT17=
EXTT18=
EXTT19=
EXTT20=
EXTT21=
PLAYORDER=
